<svg width="26" height="20" viewBox="0 0 26 20" fill="none" xmlns="http://www.w3.org/2000/svg">
<path d="M1.79998 0.480001C1.39607 0.474289 1.02038 0.686501 0.816748 1.03538C0.613127 1.38426 0.613127 1.81575 0.816748 2.16463C1.02037 2.51351 1.39607 2.72572 1.79998 2.72001H24.2C24.6039 2.72572 24.9796 2.51351 25.1832 2.16463C25.3868 1.81575 25.3868 1.38426 25.1832 1.03538C24.9796 0.686501 24.6039 0.474289 24.2 0.480001H1.79998ZM1.79998 8.88C1.39607 8.87429 1.02038 9.0865 0.816748 9.43538C0.613127 9.78426 0.613127 10.2157 0.816748 10.5646C1.02037 10.9135 1.39607 11.1257 1.79998 11.12H24.2C24.6039 11.1257 24.9796 10.9135 25.1832 10.5646C25.3868 10.2157 25.3868 9.78426 25.1832 9.43538C24.9796 9.0865 24.6039 8.87429 24.2 8.88H1.79998ZM1.79998 17.28C1.39607 17.2743 1.02038 17.4865 0.816748 17.8354C0.613127 18.1843 0.613127 18.6157 0.816748 18.9646C1.02037 19.3135 1.39607 19.5257 1.79998 19.52H24.2C24.6039 19.5257 24.9796 19.3135 25.1832 18.9646C25.3868 18.6157 25.3868 18.1843 25.1832 17.8354C24.9796 17.4865 24.6039 17.2743 24.2 17.28H1.79998Z" fill="white"/>
</svg>
